<?xml version="1.0" encoding="UTF-8"?>
<svg width="59px" height="20px" viewBox="0 0 59 20" version="1.1" xmlns="http://www.w3.org/2000/svg" xmlns:xlink="http://www.w3.org/1999/xlink">
    <!-- Generator: sketchtool 61 (101010) - https://sketch.com -->
    <title>9F9109CF-724F-4D14-95AF-47876BEF423D</title>
    <desc>Created with sketchtool.</desc>
    <g id="Page-1" stroke="none" stroke-width="1" fill="none" fill-rule="evenodd">
        <g id="Payment" transform="translate(-392.000000, -372.000000)" fill="#144BA0">
            <g id="Asset-2-Copy-5" transform="translate(392.000000, 372.000000)">
                <path d="M9.64591955,0 C12.3156375,0.00906926652 15.0708957,0.676416128 17.9116941,2.00204058 L18.0453957,2.06325813 L18.0928381,2.20383177 L18.0928381,2.20383177 C18.3235811,2.93844235 18.5241334,3.67305294 18.6858692,4.40766353 C18.8476049,5.14227412 18.983463,5.87688471 19.0783479,6.6114953 C19.2119355,7.56841381 19.2889975,8.53311615 19.3090909,9.50005668 L19.3090909,10.633715 C19.2448629,13.1181634 18.835102,15.579349 18.0928381,17.9390092 L18.0453957,18.0795828 L17.9116941,18.138533 C15.383313,19.3469162 12.6410075,19.9812017 9.86372368,20 L9.64807602,20 L9.64807602,19.319805 L9.86372368,19.319805 C12.5026542,19.3024927 15.1094502,18.7095573 17.5192154,17.5785058 C18.6194737,14.0792755 18.9339102,10.3596579 18.4378744,6.71125723 C18.3429894,6.00612175 18.2071314,5.28284775 18.0453957,4.56864301 C17.9009117,3.90431924 17.7197677,3.2309262 17.5192154,2.56660243 C14.8063679,1.31806673 12.181936,0.689264256 9.64591955,0.680194989 L9.64591955,0 Z M1.78771905,2.01337717 L1.63460921,2.18342592 C0.612029858,4.62829043 0.0566264999,7.26068939 0,9.93084684 L0,10.2528058 C0.0247604913,12.9145092 0.58168401,15.5409808 1.63460921,17.9616823 L1.80712734,18.1339984 C4.27123839,19.3123567 6.93931429,19.945941 9.64591955,19.9954654 L9.64591955,19.3152704 C7.07090712,19.2639025 4.53201001,18.6686479 2.18019778,17.5649019 C1.15554506,15.1693328 0.636868164,12.5687365 0.65988182,9.94218343 C0.710050009,7.40246949 1.23009322,4.89732612 2.19098016,2.56660243 C4.47988088,1.33138488 7.01489882,0.684871256 9.58769468,0.680194989 L9.64591955,0.680194989 L9.64591955,0 L9.58769468,0 C6.87168066,0.00309352622 4.1962988,0.693679371 1.78771905,2.01337717 L1.78771905,2.01337717 Z" id="Shape" fill-rule="nonzero"></path>
                <path d="M10.1604499,15.7142857 C10.0135092,13.8343412 10.1083097,11.8744935 9.50869661,10.0811107 C8.94937374,8.40536323 6.83532292,7.45096399 6.79503271,5.60875152 C6.77198568,4.77820326 7.11415531,3.97523491 7.74146994,3.38775033 C8.36878457,2.80026575 9.22619226,2.47982148 10.1130497,2.50140519 C11.9274803,2.45115027 13.4588914,3.75485866 13.5780075,5.45116467 C13.7581284,7.25342555 11.4212964,8.46529062 10.8122033,10.1787702 C10.1817801,11.9322013 10.359531,13.8720732 10.1604499,15.7142857 Z" id="Shape"></path>
                <path d="M11.1246122,15.3571429 C11.0457355,13.5961824 11.0457355,11.9116816 11.4927036,10.4159404 C11.9900652,8.71949272 13.0264176,7.28826434 14.595188,6.83189602 C15.6731698,6.51411076 17.2594684,7.89038379 17.00531,9.30249726 C16.786208,10.4374446 15.7498555,11.7730985 14.0781073,11.9307965 C13.3002951,12.0048667 12.9694511,12.6834458 12.4830447,13.0753013 C14.1844793,12.9373525 15.7940806,12.1800275 17.0535125,10.9248747 C17.1981198,11.7515942 17.2967157,13.1398141 16.7029493,13.6176867 C15.5351356,14.5184765 14.4571537,13.7873314 13.0855752,14.2102487 C12.3187182,14.4467956 11.8432668,14.9748448 11.1246122,15.3571429 Z" id="Shape"></path>
                <path d="M9.25451165,15.3571429 C9.3400341,13.5961824 9.33126256,11.9116816 8.8926859,10.4159404 C8.39709428,8.71949272 7.3576676,7.28826434 5.78975604,6.83189602 C4.70866458,6.51411076 3.11224554,7.89038379 3.37758442,9.30249726 C3.59687275,10.4374446 4.63410655,11.7730985 6.3072765,11.9307965 C7.07478565,12.0048667 7.41687545,12.6834458 7.90369554,13.0753013 C5.71081224,12.836365 4.3117527,11.9092922 3.32934099,10.9248747 C3.18241781,11.7515942 3.08593094,13.1398141 3.68020231,13.6176867 C4.84681623,14.5184765 5.92790769,13.7873314 7.30065263,14.2102487 C8.0659689,14.4467956 8.53305304,14.9748448 9.25451165,15.3571429 Z" id="Shape"></path>
                <path d="M15.1795868,17.8884902 L15.1795868,17.5888058 L15.382356,17.5308836 L15.1795868,17.1959422 L15.1795868,16.636867 L16.0909091,18.0345549 L15.7673897,18.1252157 L15.5395591,17.7776825 L15.1750302,17.8884902 L15.1795868,17.8884902 Z M15.1795868,16.629312 L15.1180726,16.5285777 L14.7945532,16.6192385 L14.5826707,18.4400103 L14.9061901,18.3518678 L14.9471996,17.936339 L15.1750302,17.8809351 L15.1750302,17.5888058 L14.972261,17.6442096 L15.0337753,16.9718084 L15.1750302,17.1959422 L15.1750302,16.636867 L15.1795868,16.629312 Z M12.1653884,18.8530207 L12.1653884,18.8530207 L12.1653884,18.5709648 L12.2382942,18.5709648 C12.3096061,18.5664001 12.3804658,18.5554513 12.4501766,18.5382262 C12.4900803,18.5242633 12.5250972,18.4969928 12.5504221,18.4601571 C12.5784934,18.417913 12.5929334,18.3664814 12.5914316,18.3140924 C12.5868795,18.2651442 12.5694543,18.2187424 12.5413089,18.1806196 C12.5153915,18.1453837 12.4791084,18.1213201 12.4387851,18.1126239 C12.3479237,18.101642 12.2562499,18.101642 12.1653884,18.1126239 L12.1653884,17.8230129 C12.2474074,17.8230129 12.2975302,17.8104211 12.3180349,17.8104211 C12.3646955,17.7990388 12.4069374,17.771728 12.4387851,17.7323521 C12.4705754,17.6975772 12.4827883,17.6464713 12.4706814,17.5988792 C12.4731246,17.5506174 12.4534294,17.504237 12.4182804,17.4754797 C12.3894138,17.4351619 12.3437414,17.4142061 12.2975302,17.4200759 C12.2535341,17.4167576 12.2093845,17.4167576 12.1653884,17.4200759 L12.1653884,17.1405383 C12.2463737,17.1301018 12.3281818,17.1301018 12.4091671,17.1405383 C12.5284766,17.1501908 12.638537,17.2151354 12.7121818,17.3193416 C12.7438064,17.3817028 12.7646656,17.45002 12.773696,17.5208102 C12.779764,17.5983232 12.7655279,17.6761293 12.7326865,17.7449439 C12.6975755,17.8156321 12.644511,17.8734122 12.5800401,17.9111554 C12.6672619,17.9265242 12.7473981,17.9734714 12.8078706,18.0446283 C12.8683183,18.1122237 12.9047146,18.2016262 12.9103944,18.2964639 C12.9095114,18.3756025 12.8995595,18.4542984 12.8807764,18.5306711 C12.8510343,18.6024625 12.8092933,18.6673989 12.7577479,18.7220662 C12.6965943,18.7680184 12.6287889,18.8020864 12.557257,18.8228005 C12.504856,18.8228005 12.3749925,18.8454657 12.1813366,18.8656125 L12.1653884,18.8530207 Z M14.0768869,17.9161921 L14.0768869,17.9161921 L14.3912931,17.9590042 C14.3819133,18.1266873 14.325357,18.2869377 14.2295334,18.4173451 C14.1230716,18.529072 13.9891208,18.6035422 13.8444997,18.6314054 C13.6567357,18.6680906 13.4635401,18.6190192 13.3090979,18.4954141 C13.1430028,18.3485531 13.034482,18.1366026 13.0060832,17.9036003 C12.9561312,17.6671488 12.9921268,17.4184718 13.1063287,17.2110523 C13.2139895,17.0287974 13.3875331,16.9067245 13.5824946,16.8761109 C13.7499515,16.8388365 13.9239594,16.8749571 14.0677737,16.9768451 C14.1595678,17.0449915 14.2303197,17.1425299 14.2705429,17.2563827 L13.9766414,17.3898556 C13.9495074,17.3141075 13.899634,17.2509768 13.8353865,17.2110523 C13.7664604,17.1673047 13.6859566,17.1512872 13.6075559,17.1657219 C13.5026011,17.1872141 13.4107496,17.2567297 13.354664,17.357117 C13.2926068,17.499797 13.2780844,17.6621051 13.3136545,17.8154579 C13.3329629,17.9777761 13.3965386,18.1297441 13.4959189,18.2511335 C13.5759748,18.3298049 13.6847701,18.3624332 13.7898204,18.339276 C13.865266,18.3195476 13.9326085,18.2725807 13.981198,18.2058031 C14.0380676,18.1220817 14.0699216,18.0208523 14.0723303,17.9161921 L14.0768869,17.9161921 Z M12.1653884,17.1329833 C12.1558605,17.1289049 12.1452984,17.1289049 12.1357705,17.1329833 L11.5183496,17.1909055 L11.6618829,18.9008695 L12.1653884,18.8429473 L12.1653884,18.5709648 L11.9375579,18.59363 L11.9079399,18.1352891 L12.1494403,18.1126239 L12.1494403,18.1126239 L12.1494403,17.8230129 C12.126123,17.8281031 12.1021301,17.8281031 12.0788128,17.8230129 L11.8669304,17.8456781 L11.8532605,17.470443 L12.035525,17.4477778 C12.0856477,17.4477778 12.1266572,17.4477778 12.1653884,17.4477778 L12.1653884,17.1405383 L12.1653884,17.1329833 Z M10.224272,18.268762 L10.224272,18.268762 L10.224272,17.9741143 C10.2721595,17.9751134 10.319873,17.9674575 10.3655269,17.9514491 C10.4047689,17.9360421 10.43944,17.909041 10.4657724,17.8733801 C10.4855787,17.8322053 10.4964956,17.7865225 10.4976687,17.7399072 C10.5056707,17.6837108 10.4906423,17.6264919 10.4566592,17.5837691 C10.4271595,17.5408926 10.3839734,17.5120706 10.335909,17.5031817 C10.3040127,17.5031817 10.2743947,17.5031817 10.224272,17.5031817 L10.224272,17.2186074 C10.3231979,17.2117808 10.4224688,17.2228389 10.5181734,17.251346 C10.6111867,17.2724129 10.6929994,17.3330029 10.746004,17.4200759 C10.8109149,17.5161141 10.8402477,17.6359004 10.828023,17.7550173 C10.8277282,17.8468199 10.8106805,17.9376132 10.7779003,18.0219631 C10.7416524,18.0851269 10.6971194,18.1419905 10.6457585,18.190693 C10.5897011,18.2210046 10.5318518,18.2470872 10.4726073,18.268762 C10.392198,18.2747384 10.3115163,18.2747384 10.2311069,18.268762 L10.224272,18.268762 Z M10.224272,17.2186074 L10.142253,17.2186074 L9.64786066,17.2186074 L9.61824269,18.9285714 L9.93037057,18.9285714 L9.93037057,18.2788355 L10.224272,18.2788355 L10.224272,17.9741143 L9.95087532,17.9741143 L9.95087532,17.470443 L10.1035218,17.470443 L10.224272,17.470443 L10.224272,17.2186074 Z M7.2920926,18.1025505 L7.2920926,18.1025505 L7.2920926,17.576214 C7.35182466,17.5916976 7.41300573,17.5993057 7.47435706,17.5988792 C7.51270633,17.5919202 7.54835886,17.5726536 7.57688081,17.5434754 C7.60068763,17.5063355 7.61771301,17.46442 7.62700353,17.4200759 C7.63549215,17.3702286 7.62825443,17.318671 7.60649878,17.2740112 C7.58041974,17.23039 7.54064994,17.1989899 7.49486181,17.1858687 C7.42838081,17.1652294 7.36060458,17.1500775 7.2920926,17.1405383 L7.2920926,16.8509273 L7.42423433,16.8710742 C7.54339139,16.8896174 7.65935701,16.927818 7.76825849,16.9844002 C7.83905441,17.0295415 7.89312497,17.1009058 7.92090497,17.1858687 C7.95573739,17.2755637 7.96449492,17.3750063 7.94596633,17.470443 C7.93168452,17.5848693 7.87777522,17.6886993 7.79559815,17.760054 C7.70188167,17.8347576 7.58729163,17.8704375 7.47207875,17.8607883 C7.52742671,17.9078341 7.57518411,17.9648806 7.6133337,18.0295182 C7.66685486,18.1283832 7.71113042,18.2330148 7.74547543,18.3417944 L7.87533885,18.7094744 L7.51308825,18.6314054 L7.34449363,18.22595 C7.32398888,18.1932113 7.31259735,18.1478809 7.2920926,18.1151423 L7.2920926,18.1025505 Z M8.1737969,17.0398041 L8.1737969,17.0398041 L8.47681155,17.0725427 L8.40618407,18.0018162 C8.40618407,18.1453626 8.40618407,18.2536519 8.40618407,18.2813538 C8.41316283,18.3493855 8.4413577,18.4126072 8.48592477,18.4601571 C8.54140592,18.5161058 8.61359701,18.5474868 8.68869398,18.5482996 C8.75904457,18.562858 8.83175979,18.5466021 8.89146318,18.5029692 C8.93812423,18.4730052 8.97364838,18.4257061 8.99170863,18.3694963 C8.99170863,18.3140924 9.01221338,18.2133582 9.0213266,18.0798853 L9.09195408,17.1304649 L9.40636026,17.1632035 L9.33573279,18.0572201 C9.33550518,18.205068 9.31475912,18.3520023 9.27421853,18.4928958 C9.25530337,18.5676972 9.22099431,18.6366499 9.17397308,18.6943643 C9.1175666,18.7547765 9.04755087,18.7973861 8.97120388,18.8177637 C8.87589219,18.8488453 8.77559533,18.85658 8.67730245,18.840429 C8.56184021,18.8368105 8.44841851,18.8058968 8.34466982,18.7497681 C8.27945164,18.7098751 8.22150992,18.6569298 8.1737969,18.59363 C8.13697958,18.5328698 8.11213962,18.4642268 8.10089111,18.3921615 C8.09156416,18.2471192 8.09156416,18.1015281 8.10089111,17.9564858 L8.1737969,17.0398041 Z M5.71778339,17.5434754 L5.71778339,17.5434754 L5.77701933,17.2639378 L6.43544967,17.4528145 L6.27368997,18.1126239 C6.1751168,18.1754446 6.06391482,18.2100695 5.95017056,18.2133582 C5.82408594,18.22419 5.69724444,18.2131435 5.57425013,18.1806196 C5.43810955,18.1414821 5.31336348,18.0642985 5.21199953,17.9564858 C5.11536907,17.8492172 5.0482223,17.7138719 5.01834355,17.5661406 C4.99672438,17.4092208 5.00369583,17.2491075 5.0388483,17.0952079 C5.077332,16.9329853 5.15081711,16.7834916 5.25300903,16.6595322 C5.34684071,16.5485358 5.47078825,16.4742868 5.60614641,16.4479903 C5.73314129,16.4158664 5.86573858,16.4237182 5.98890176,16.4706555 C6.14556667,16.5026878 6.28819379,16.591258 6.39444017,16.7224911 C6.47689817,16.8399825 6.51670906,16.9872663 6.50607715,17.1355016 L6.19167096,17.1128364 C6.19422846,17.0279427 6.16917044,16.944848 6.12104349,16.8786292 C6.06683164,16.8130208 5.99628755,16.7665851 5.91827428,16.7451564 C5.80384902,16.7072505 5.68037709,16.7227184 5.57652843,16.7879684 C5.46104827,16.8796409 5.3799881,17.0149383 5.34869787,17.1682402 C5.29710739,17.323505 5.29710739,17.4939816 5.34869787,17.6492463 C5.40437438,17.7678312 5.50431442,17.8534455 5.62209455,17.8834535 C5.68827971,17.9021674 5.7566291,17.9098074 5.82486375,17.9061187 C5.89024034,17.8951354 5.95438736,17.8765649 6.01624143,17.8507149 L6.06636415,17.6391729 L5.7246183,17.5384386 L5.71778339,17.5434754 Z M7.28297938,16.8509273 L7.28297938,16.8509273 L6.75896908,16.7501931 L6.49468562,18.4374919 L6.79770027,18.4928958 L6.90933725,17.7877559 L6.97996473,17.7877559 C7.03236923,17.7957091 7.08365645,17.8109395 7.1326112,17.8330864 C7.16197068,17.8592255 7.18870434,17.8887759 7.2123519,17.9212288 C7.22374343,17.9539675 7.25336141,18.0118897 7.28297938,18.0899587 L7.28297938,17.576214 C7.25336141,17.576214 7.22374343,17.576214 7.18273393,17.576214 L6.95490336,17.5308836 L7.03464406,17.0952079 L7.27842277,17.1405383 L7.29664921,17.1405383 L7.28297938,16.8509273 Z" id="Shape"></path>
                <path d="M53.1333159,14.2632796 L53.1333159,11.5052972 L54.3252565,11.5052972 L54.3252565,6.65900222 L53.1333159,9.08214969 L53.1333159,3.03088958 L57.8102226,3.03088958 L59,16.9705962 L54.3252565,16.9705962 L54.3252565,14.2632796 L53.1333159,14.2632796 Z M53.1333159,3.02868672 L51.480607,3.02868672 L49.6375336,6.52683054 L50.2994825,6.52683054 L47.0676145,13.637667 L47.0676145,16.8230045 L49.9663449,16.8230045 L50.8878815,14.2632796 L53.1333159,14.2632796 L53.1333159,11.5052972 L51.9435385,11.5052972 L53.1333159,9.08214969 L53.1333159,3.03088958 L53.1333159,3.02868672 Z M47.0762674,7.67231843 L47.0762674,3.35250734 L48.5256326,4.17417462 L47.0762674,7.6745213 L47.0762674,7.67231843 Z M35.546243,6.33297874 L35.546243,6.33297874 C35.6133098,5.94754279 35.6133098,5.55310103 35.546243,5.16766509 L35.546243,6.33297874 Z M47.0762674,3.35030448 L47.0762674,3.35030448 L47.0762674,7.6745213 L46.8837398,8.14373076 C44.0131315,6.05982393 39.7991563,7.95648755 39.5503847,10.157146 C39.310266,12.4481218 41.0278719,14.3117425 45.4235585,12.9239399 L43.9092964,17.0300734 C38.1204886,17.6909318 35.872891,15.3470874 35.5375901,12.6243507 L35.5375901,11.0823478 C35.6250556,10.3786911 35.7987456,9.68896474 36.0546024,9.02928102 C38.9057417,1.81491012 43.5350573,3.43841893 45.2916014,3.30184153 L45.5511892,2.5 L47.0654513,3.36131879 L47.0762674,3.35030448 Z M47.0762674,13.6354641 L47.0762674,16.8230045 L45.6269023,16.8230045 L47.0762674,13.637667 L47.0762674,13.6354641 Z M30.3328549,16.7370929 L30.3328549,13.3446864 C31.2457386,12.7278852 31.7454451,10.7342957 30.3328549,10.458938 L30.3328549,8.34859687 L30.9299068,8.34859687 C32.2278458,8.34859687 32.370619,5.59061446 31.3236149,5.59061446 L30.343671,5.59061446 L30.343671,2.91193507 L32.7059199,2.96039802 C34.4365052,2.99123808 35.3364096,3.96930852 35.5484063,5.16325936 L35.5484063,6.32857302 C35.3305398,7.5947922 34.5504893,8.6875189 33.434929,9.28921866 C36.489412,12.3115444 33.4457451,16.1026688 30.343671,16.7304843 L30.3328549,16.7370929 Z M35.5375901,11.0757392 C35.479341,11.5880289 35.479341,12.1054525 35.5375901,12.6177422 L35.5375901,11.0757392 L35.5375901,11.0757392 Z M26.2356942,2.82382062 L26.2356942,2.82382062 L24.3255607,6.5973221 L25.1908534,6.5290334 L22.8848485,16.8230144 L29.4783784,16.8230144 C29.7688919,16.8236275 30.0587471,16.7948489 30.343671,16.7370929 L30.343671,13.3446864 C30.1907466,13.4604541 30.0063407,13.5251011 29.8158425,13.5297267 L27.4362878,13.5297267 L28.2237041,10.4303008 L29.9997172,10.4303008 C30.1121352,10.4286486 30.2244409,10.4382403 30.3350181,10.458938 L30.3350181,8.34859687 L28.6844724,8.34859687 L29.3464213,5.59061446 L30.3350181,5.59061446 L30.3350181,2.91193507 L26.2356942,2.82382062 Z" id="Shape"></path>
            </g>
        </g>
    </g>
</svg>