<?xml version="1.0" encoding="UTF-8"?>
<svg width="20px" height="24px" viewBox="0 0 20 24" version="1.1" xmlns="http://www.w3.org/2000/svg" xmlns:xlink="http://www.w3.org/1999/xlink">
    <!-- Generator: sketchtool 59.1 (101010) - https://sketch.com -->
    <title>449AAB43-530F-4812-B768-910923757B1C</title>
    <desc>Created with sketchtool.</desc>
    <g id="Page-1" stroke="none" stroke-width="1" fill="none" fill-rule="evenodd">
        <g id="Dashboard" transform="translate(-834.000000, -200.000000)" fill="#65A1E0" fill-rule="nonzero">
            <g id="Group-4-Copy" transform="translate(834.000000, 200.000000)">
                <path d="M11.9172414,1.92 L11.9172414,3.34344828 C11.9172414,3.87364164 12.347048,4.30344828 12.8772414,4.30344828 C13.4074347,4.30344828 13.8372414,3.87364164 13.8372414,3.34344828 L13.8372414,1.75448276 C13.8372414,0.785508687 13.0517327,-4.26325641e-13 12.0827586,-4.26325641e-13 L7.31586207,-4.26325641e-13 C6.346888,-4.26325641e-13 5.56137931,0.785508687 5.56137931,1.75448276 L5.56137931,3.34344828 C5.56137931,3.87364164 5.99118595,4.30344828 6.52137931,4.30344828 C7.05157267,4.30344828 7.48137931,3.87364164 7.48137931,3.34344828 L7.48137931,1.92 L11.9172414,1.92 Z" id="Path"></path>
                <path d="M0.96,5.09793103 L18.4386207,5.09793103 C18.968814,5.09793103 19.3986207,4.66812439 19.3986207,4.13793103 C19.3986207,3.60773767 18.968814,3.17793103 18.4386207,3.17793103 L0.96,3.17793103 C0.42980664,3.17793103 0,3.60773767 0,4.13793103 C0,4.66812439 0.42980664,5.09793103 0.96,5.09793103 Z" id="Path"></path>
                <path d="M17.6441379,5.72689655 L1.7942069,5.72689655 C1.57670246,5.71600754 1.36426346,5.79487953 1.20656299,5.94507045 C1.04886252,6.09526138 0.9597276,6.30360264 0.959999377,6.52137931 L2.62841379,21.6165517 C2.62797403,22.050658 2.8051618,22.4660434 3.11880014,22.7661758 C3.43243848,23.0663082 3.85521603,23.2250523 4.28888276,23.2055172 L15.1097379,23.2055172 C15.5434047,23.2250523 15.9661822,23.0663082 16.2798205,22.7661758 C16.5934589,22.4660434 16.7706467,22.050658 16.7702069,21.6165517 L18.4386207,6.52137931 C18.4386207,6.0825986 18.0829186,5.72689655 17.6441379,5.72689655 Z M7.31586207,19.2331034 C7.31586207,19.6718842 6.96016002,20.0275862 6.52137931,20.0275862 C6.0825986,20.0275862 5.72689655,19.6718842 5.72689655,19.2331034 L5.72689655,11.2882759 C5.72689655,10.8494952 6.0825986,10.4937931 6.52137931,10.4937931 C6.96016002,10.4937931 7.31586207,10.8494952 7.31586207,11.2882759 L7.31586207,19.2331034 Z M13.6717241,19.2331034 C13.6717241,19.6718842 13.3160221,20.0275862 12.8772414,20.0275862 C12.4384607,20.0275862 12.0827586,19.6718842 12.0827586,19.2331034 L12.0827586,11.2882759 C12.0827586,10.8494952 12.4384607,10.4937931 12.8772414,10.4937931 C13.3160221,10.4937931 13.6717241,10.8494952 13.6717241,11.2882759 L13.6717241,19.2331034 Z" id="Shape"></path>
            </g>
        </g>
    </g>
</svg>