<?xml version="1.0" encoding="UTF-8"?>
<svg width="60px" height="60px" viewBox="0 0 60 60" version="1.1" xmlns="http://www.w3.org/2000/svg" xmlns:xlink="http://www.w3.org/1999/xlink">
    <!-- Generator: sketchtool 58 (101010) - https://sketch.com -->
    <title>77364A08-E37F-4FC2-A9AA-C73887227BFB</title>
    <desc>Created with sketchtool.</desc>
    <g id="Home-&amp;-Layanan" stroke="none" stroke-width="1" fill="none" fill-rule="evenodd">
        <g id="Main-Layanan" transform="translate(-177.000000, -379.000000)">
            <g id="Group-8" transform="translate(177.000000, 379.000000)">
                <path d="M17.3062251,-6.99192208e-16 L42.6937749,6.99192208e-16 C48.7115264,-4.06250808e-16 50.8937085,0.626572875 53.0937085,1.80314575 C55.2937085,2.97971863 57.0202814,4.7062915 58.1968542,6.9062915 C59.3734271,9.1062915 60,11.2884736 60,17.3062251 L60,42.6937749 C60,48.7115264 59.3734271,50.8937085 58.1968542,53.0937085 C57.0202814,55.2937085 55.2937085,57.0202814 53.0937085,58.1968542 C50.8937085,59.3734271 48.7115264,60 42.6937749,60 L17.3062251,60 C11.2884736,60 9.1062915,59.3734271 6.9062915,58.1968542 C4.7062915,57.0202814 2.97971863,55.2937085 1.80314575,53.0937085 C0.626572875,50.8937085 2.70833872e-16,48.7115264 -4.66128138e-16,42.6937749 L4.66128138e-16,17.3062251 C-2.70833872e-16,11.2884736 0.626572875,9.1062915 1.80314575,6.9062915 C2.97971863,4.7062915 4.7062915,2.97971863 6.9062915,1.80314575 C9.1062915,0.626572875 11.2884736,4.06250808e-16 17.3062251,-6.99192208e-16 Z" id="App-Icon-Copy-27" fill="#EB6D44"></path>
                <g id="iconfinder_Cash_extract_2853739" transform="translate(12.000000, 12.000000)" fill="#FFFFFF" fill-rule="nonzero">
                    <path d="M20.5714286,13.5514286 C18.555168,12.3873416 16.0083658,12.7229681 14.3625195,14.3696602 C12.7166732,16.0163523 12.3823552,18.5633266 13.5474779,20.5789888 C14.7126006,22.594651 17.0865126,23.5761745 19.3348939,22.971868 C21.5832753,22.3675614 23.1452452,20.3281751 23.1428599,18 C23.1409745,16.1645184 22.1610036,14.4691689 20.5714286,13.5514286 Z" id="Path"></path>
                    <path d="M31.5642857,7.71428571 L20.5714286,7.71428571 L20.5714286,4.04357143 C20.5714286,1.81036859 18.76106,0 16.5278571,0 L4.04357143,0 C1.81036859,0 0,1.81036859 0,4.04357143 L0,31.9564286 C0,34.1896314 1.81036859,36 4.04357143,36 L16.5278571,36 C18.76106,36 20.5714286,34.1896314 20.5714286,31.9564286 L20.5714286,28.2857143 L31.5642857,28.2857143 C34.0140631,28.2857143 36,26.2997774 36,23.85 L36,12.15 C36,9.70022265 34.0140631,7.71428571 31.5642857,7.71428571 Z M18,31.9564286 C18,32.7694706 17.3408992,33.4285714 16.5278571,33.4285714 L4.04357143,33.4285714 C3.23052938,33.4285714 2.57142857,32.7694706 2.57142857,31.9564286 L2.57142857,4.04357143 C2.57142857,3.23052938 3.23052938,2.57132555 4.04357143,2.57132555 L4.75071429,2.57132555 C5.08757231,2.57313999 5.39100231,2.77542666 5.52214286,3.08571429 L6.06214286,4.37142857 C6.2682051,4.84362688 6.73624525,5.14722049 7.25142857,5.14285714 L13.2171429,5.14285714 C13.711705,5.14145713 14.1616251,4.85650772 14.3742857,4.41 L15.0171429,3.04714286 C15.1597603,2.75192523 15.4607498,2.56631503 15.7885714,2.57132555 L16.5278571,2.57132555 C16.9182937,2.57132555 17.292739,2.72652889 17.5688193,3.00260923 C17.8448997,3.27868957 18,3.65313487 18,4.04357143 L18,7.71428571 L11.6228571,7.71428571 L11.5842857,7.86214286 C11.2105157,7.83123406 10.841882,7.96506923 10.575,8.22857143 C9.64928571,9.15428571 9.18,12.8957143 9.18,19.3564286 C9.18,25.8171429 9.64285714,29.5714286 10.575,30.4778571 C11.0525291,31.0104174 11.8713683,31.055029 12.4039285,30.5775 C12.9364888,30.0999709 12.9811005,29.2811317 12.5035714,28.7485714 C12.4375892,28.5995244 12.3859281,28.4445413 12.3492857,28.2857143 L18,28.2857143 L18,31.9564286 Z M32.1428571,25.7142857 C31.4327768,25.7142857 30.8571429,25.1386518 30.8571429,24.4285714 C30.8571429,23.718491 31.4327768,23.1428571 32.1428571,23.1428571 C32.8529375,23.1428571 33.4285714,23.718491 33.4285714,24.4285714 C33.4285714,25.1386518 32.8529375,25.7142857 32.1428571,25.7142857 Z M31.4421429,21.06 C30.0912598,21.6771926 29.0542135,22.823524 28.575,24.2292857 C28.2673551,25.1198135 27.4278821,25.716485 26.4857143,25.7142918 L11.9635714,25.7142918 C11.5778571,20.9764286 11.7064286,12.4971429 12.3557143,10.2856837 L26.4985714,10.2856837 C27.4430987,10.2807593 28.2858774,10.877943 28.5942857,11.7707143 C29.0734993,13.176476 30.1105455,14.3228074 31.4614286,14.94 C32.6702039,15.4778887 33.4490554,16.6769497 33.4490554,18 C33.4490554,19.3230503 32.6702039,20.5221113 31.4614286,21.06 L31.4421429,21.06 Z" id="Shape"></path>
                </g>
            </g>
        </g>
    </g>
</svg>