<?xml version="1.0" encoding="UTF-8"?>
<svg width="29px" height="30px" viewBox="0 0 29 30" version="1.1" xmlns="http://www.w3.org/2000/svg" xmlns:xlink="http://www.w3.org/1999/xlink">
    <!-- Generator: sketchtool 61 (101010) - https://sketch.com -->
    <title>442E8C40-0B52-495C-9BCA-279986877B1E</title>
    <desc>Created with sketchtool.</desc>
    <g id="Page-1" stroke="none" stroke-width="1" fill="none" fill-rule="evenodd">
        <g id="Payment" transform="translate(-726.000000, -258.000000)">
            <g id="Group-15" transform="translate(708.000000, 218.000000)">
                <g id="Group-4-Copy" transform="translate(16.000000, 39.000000)">
                    <g id="Group-22">
                        <g id="kasku-1-copy-4" transform="translate(2.370370, 1.777778)">
                            <path d="M4.43744134,3.24211072 C4.54114792,1.835158 5.56128354,0.625042529 7.01983057,0.178803154 C8.4783776,-0.26743622 10.0863528,0.138614308 11.0902873,1.2066866 C12.0942218,2.27475889 12.2952051,3.79323482 11.59906,5.05058327 C10.9029149,6.30793171 9.44756919,7.0550331 7.91497235,6.94180885 C5.82275754,6.78109463 4.26713781,5.09755735 4.43744134,3.17832283 L4.43744134,3.24211072 Z" id="Path" fill="#231F20"></path>
                            <path d="M16.5183512,3.24211072 C16.621085,1.835158 17.6316512,0.625042529 19.0765163,0.178803154 C20.5213814,-0.26743622 22.114273,0.138614308 23.1087901,1.2066866 C24.1033071,2.27475889 24.3024051,3.79323482 23.6127902,5.05058327 C22.9231753,6.30793171 21.4814815,7.0550331 19.9632612,6.94180885 C18.9519672,6.88936178 18.0069627,6.45917626 17.3445865,5.74973414 C16.6822103,5.04029202 16.3591823,4.11234353 16.449453,3.17832283 L16.5183512,3.24211072 Z" id="Path" fill="#231F20"></path>
                            <path d="M27.4321226,4.20073833 C28.3842738,9.22481321 27.5352309,14.4188661 25.0302991,18.893985 C20.3922953,27.3834165 11.6629094,30.8608182 5.5175543,26.66508 C-0.164000429,22.82851 -1.63822309,13.7023712 1.93966561,5.70271466 C2.02161958,5.52062235 2.20150723,5.40031308 2.403466,5.3925239 C2.53975793,5.40090965 2.66704735,5.46245661 2.75719078,5.56355686 C2.84733421,5.6646571 2.89290614,5.79698256 2.88383068,5.93127628 C2.53598039,10.8290252 4.10958885,15.3349542 7.42244875,17.6042445 C12.6402031,21.1632754 20.210088,17.9634127 24.3180343,10.4535311 C25.3789328,8.51693833 26.1277554,6.42949086 26.5376504,4.26604165 C26.5376504,4.00456296 26.752717,3.79259259 27.0180151,3.79259259 C27.2833132,3.79259259 27.4983798,4.00456296 27.4983798,4.26604165 L27.4321226,4.20073833 Z" id="Shape" fill="#FF2800"></path>
                        </g>
                        <rect id="Rectangle-Copy-12" x="0" y="0" width="32" height="32"></rect>
                    </g>
                </g>
            </g>
        </g>
    </g>
</svg>