<?xml version="1.0" encoding="UTF-8"?>
<svg width="60px" height="60px" viewBox="0 0 60 60" version="1.1" xmlns="http://www.w3.org/2000/svg" xmlns:xlink="http://www.w3.org/1999/xlink">
    <!-- Generator: sketchtool 58 (101010) - https://sketch.com -->
    <title>77B2D286-A8F1-4822-9BD1-0B631F803B9F</title>
    <desc>Created with sketchtool.</desc>
    <g id="Home-&amp;-Layanan" stroke="none" stroke-width="1" fill="none" fill-rule="evenodd">
        <g id="Main-Layanan" transform="translate(-45.000000, -379.000000)">
            <g id="Group-10" transform="translate(45.000000, 379.000000)">
                <path d="M17.3062251,-6.99192208e-16 L42.6937749,6.99192208e-16 C48.7115264,-4.06250808e-16 50.8937085,0.626572875 53.0937085,1.80314575 C55.2937085,2.97971863 57.0202814,4.7062915 58.1968542,6.9062915 C59.3734271,9.1062915 60,11.2884736 60,17.3062251 L60,42.6937749 C60,48.7115264 59.3734271,50.8937085 58.1968542,53.0937085 C57.0202814,55.2937085 55.2937085,57.0202814 53.0937085,58.1968542 C50.8937085,59.3734271 48.7115264,60 42.6937749,60 L17.3062251,60 C11.2884736,60 9.1062915,59.3734271 6.9062915,58.1968542 C4.7062915,57.0202814 2.97971863,55.2937085 1.80314575,53.0937085 C0.626572875,50.8937085 2.70833872e-16,48.7115264 -4.66128138e-16,42.6937749 L4.66128138e-16,17.3062251 C-2.70833872e-16,11.2884736 0.626572875,9.1062915 1.80314575,6.9062915 C2.97971863,4.7062915 4.7062915,2.97971863 6.9062915,1.80314575 C9.1062915,0.626572875 11.2884736,4.06250808e-16 17.3062251,-6.99192208e-16 Z" id="App-Icon-Copy-26" fill="#EB6D44"></path>
                <path d="M35.3989571,13.4676546 L31.6753525,26.527125 L39.8653788,26.527125 C40.1625449,26.5270257 40.4213385,26.629014 40.6419558,26.8333878 C40.8578625,27.0415354 40.9759241,27.2957614 40.9959446,27.5961651 C41.0195962,27.8884257 40.9398089,28.1503977 40.7561901,28.382081 L25.5814853,47.5609498 C25.4085637,47.7774392 25.189811,47.9162704 24.9247365,47.976947 C24.6644709,48.029977 24.4150005,47.9915451 24.1765218,47.8613536 C23.9384357,47.7386101 23.7670843,47.5537004 23.6625658,47.3067238 C23.5545144,47.0539875 23.5376344,46.7958885 23.6112389,46.5323276 L27.3349417,33.472758 L19.1451117,33.472758 C18.8477493,33.4730559 18.5889557,33.3710676 18.3683384,33.1666937 C18.1486043,32.9585462 18.0268133,32.7042209 18.0028673,32.4037178 C17.982945,32.1114572 18.0668542,31.8493859 18.2541042,31.6180006 L33.4173266,12.4391317 C33.5937812,12.2225431 33.8165576,12.0838111 34.0854596,12.0230352 C34.3478843,11.9700053 34.599023,12.0085364 34.8395626,12.1386286 C35.0776488,12.2576978 35.2490002,12.4387345 35.3536167,12.6818381 C35.459411,12.9383481 35.4747207,13.2002208 35.3989571,13.4676546 Z" id="Path" fill="#FFFFFF"></path>
            </g>
        </g>
    </g>
</svg>