<?xml version="1.0" encoding="UTF-8"?>
<svg width="24px" height="24px" viewBox="0 0 24 24" version="1.1" xmlns="http://www.w3.org/2000/svg" xmlns:xlink="http://www.w3.org/1999/xlink">
    <!-- Generator: sketchtool 59.1 (101010) - https://sketch.com -->
    <title>D50BAB81-D855-452F-961F-F1E94CB0CAFB</title>
    <desc>Created with sketchtool.</desc>
    <g id="Page-1" stroke="none" stroke-width="1" fill="none" fill-rule="evenodd">
        <g id="Dashboard" transform="translate(-943.000000, -427.000000)">
            <g id="Group-5" transform="translate(943.000000, 427.000000)">
                <circle id="Oval-Copy-10" fill="#0062CB" cx="12" cy="12" r="12"></circle>
                <path d="M5.875,13 L18.125,13 C18.6082492,13 19,12.5522847 19,12 C19,11.4477153 18.6082492,11 18.125,11 L5.875,11 C5.39175084,11 5,11.4477153 5,12 C5,12.5522847 5.39175084,13 5.875,13 Z" id="Line-Copy-16" fill="#FFFFFF" fill-rule="nonzero"></path>
                <path d="M5.875,13 L18.125,13 C18.6082492,13 19,12.5522847 19,12 C19,11.4477153 18.6082492,11 18.125,11 L5.875,11 C5.39175084,11 5,11.4477153 5,12 C5,12.5522847 5.39175084,13 5.875,13 Z" id="Line-Copy-17" fill="#FFFFFF" fill-rule="nonzero" transform="translate(12.000000, 12.000000) rotate(-270.000000) translate(-12.000000, -12.000000) "></path>
            </g>
        </g>
    </g>
</svg>