<?xml version="1.0" encoding="iso-8859-1"?>
<!-- Generator: Adobe Illustrator 19.0.0, SVG Export Plug-In . SVG Version: 6.00 Build 0)  -->
<svg version="1.1" id="Capa_1" xmlns="http://www.w3.org/2000/svg" xmlns:xlink="http://www.w3.org/1999/xlink" x="0px" y="0px"
	 viewBox="0 0 512 512" style="enable-background:new 0 0 512 512;" xml:space="preserve">
<polyline style="fill:#FFCA6F;" points="34.009,157.699 34.009,487.812 477.991,487.812 477.991,157.699 "/>
<g>
	<polyline style="fill:#CF947C;" points="477.991,157.699 477.991,110.64 34.009,110.64 34.009,157.699 178,157.699 	"/>
</g>
<rect x="10" y="24.19" style="fill:#9A6E5E;" width="492" height="86.45"/>
<rect x="180.08" y="24.19" style="fill:#DFAC8E;" width="151.84" height="86.45"/>
<polygon style="fill:#FFE0AD;" points="180.083,110.64 180.083,270.381 218.063,244.037 256,270.339 293.938,244.037 
	331.917,270.381 331.917,110.64 "/>
<path d="M425.81,167.7c-0.65,0-1.31-0.07-1.95-0.2c-0.64-0.12-1.27-0.32-1.87-0.57s-1.18-0.56-1.73-0.92
	c-0.54-0.36-1.06-0.78-1.52-1.24c-1.86-1.86-2.93-4.44-2.93-7.07c0-0.65,0.07-1.31,0.2-1.95s0.32-1.27,0.57-1.88
	c0.25-0.6,0.559-1.18,0.92-1.72c0.36-0.55,0.78-1.06,1.24-1.52s0.97-0.88,1.52-1.24c0.54-0.37,1.13-0.67,1.73-0.92
	s1.23-0.45,1.87-0.57c1.29-0.26,2.62-0.26,3.91,0c0.64,0.12,1.27,0.32,1.87,0.57s1.18,0.55,1.73,0.92c0.54,0.36,1.05,0.78,1.52,1.24
	c0.46,0.46,0.87,0.97,1.24,1.52c0.36,0.54,0.67,1.12,0.92,1.72c0.25,0.61,0.44,1.24,0.57,1.88s0.19,1.3,0.19,1.95
	c0,2.63-1.06,5.21-2.921,7.07c-0.47,0.46-0.98,0.88-1.52,1.24c-0.55,0.36-1.13,0.67-1.73,0.92s-1.23,0.45-1.87,0.57
	C427.12,167.63,426.47,167.7,425.81,167.7z"/>
<rect x="291.56" y="301.37" style="fill:#FF4C4C;" width="186.43" height="186.44"/>
<path d="M502,14.188H10c-5.523,0-10,4.477-10,10v86.452c0,5.523,4.477,10,10,10h14.009v367.172c0,5.523,4.477,10,10,10h443.982
	c5.523,0,10-4.477,10-10V120.64H502c5.523,0,10-4.477,10-10V24.188C512,18.665,507.523,14.188,502,14.188z M190.083,120.64h131.835
	v130.635l-22.281-15.455c-3.427-2.377-7.97-2.377-11.397-0.001L256,258.17l-32.24-22.352c-1.714-1.188-3.706-1.782-5.698-1.782
	c-1.993,0-3.986,0.595-5.699,1.783l-22.281,15.455V120.64H190.083z M321.918,34.188v66.452H190.083V34.188H321.918z M20,34.188
	h150.083v66.452H20V34.188z M170.083,120.64v27.06H44.009v-27.06H170.083z M467.991,477.812H301.56V311.374h166.431V477.812z
	 M467.991,291.374H291.56c-5.523,0-10,4.477-10,10v176.438H44.009V167.699h126.074v102.682c0,3.721,2.066,7.134,5.363,8.86
	c3.297,1.726,7.279,1.478,10.337-0.643l32.282-22.392l32.238,22.351c3.427,2.376,7.969,2.376,11.396,0l32.238-22.351l32.282,22.392
	c1.706,1.183,3.699,1.783,5.701,1.783c1.586,0,3.179-0.378,4.636-1.14c3.297-1.726,5.363-5.139,5.363-8.86V167.699h43.862
	c5.523,0,10-4.477,10-10s-4.477-10-10-10h-43.862v-27.06h126.074v170.735H467.991z M492,100.64H341.918V34.188H492V100.64z"/>
<path d="M351.162,428.208c1.953,1.953,4.512,2.929,7.071,2.929s5.119-0.977,7.071-2.929l19.472-19.473l19.472,19.473
	c1.953,1.953,4.512,2.929,7.071,2.929c2.559,0,5.119-0.977,7.071-2.929c3.905-3.905,3.906-10.237,0.001-14.142l-19.473-19.473
	l19.473-19.473c3.905-3.905,3.905-10.237-0.001-14.142c-3.905-3.905-10.237-3.905-14.142,0l-19.472,19.473l-19.472-19.473
	c-3.906-3.906-10.237-3.905-14.142,0s-3.906,10.237,0,14.142l19.473,19.473l-19.473,19.473
	C347.256,417.972,347.256,424.303,351.162,428.208z"/>
<g>
</g>
<g>
</g>
<g>
</g>
<g>
</g>
<g>
</g>
<g>
</g>
<g>
</g>
<g>
</g>
<g>
</g>
<g>
</g>
<g>
</g>
<g>
</g>
<g>
</g>
<g>
</g>
<g>
</g>
</svg>
