<?xml version="1.0" encoding="iso-8859-1"?>
<!-- Generator: Adobe Illustrator 19.0.0, SVG Export Plug-In . SVG Version: 6.00 Build 0)  -->
<svg version="1.1" id="Capa_1" xmlns="http://www.w3.org/2000/svg" xmlns:xlink="http://www.w3.org/1999/xlink" x="0px" y="0px"
	 viewBox="0 0 512 512" style="enable-background:new 0 0 512 512;" xml:space="preserve">
<rect x="10" y="256" style="fill:#FFCA6F;" width="246" height="245.96"/>
<rect x="256" y="256" style="fill:#EDA558;" width="246" height="245.96"/>
<rect x="133" y="10.04" style="fill:#DFAC8E;" width="246" height="245.97"/>
<polygon style="fill:#CF947C;" points="211.878,10.035 211.878,102.855 233.952,87.548 256,102.831 278.048,87.548 300.122,102.855 
	300.122,10.035 "/>
<polygon style="fill:#FFCA6F;" points="334.878,256.004 334.878,348.824 356.951,333.516 379,348.799 401.048,333.516 
	423.122,348.824 423.122,256.004 "/>
<polygon style="fill:#EDA558;" points="88.878,256.004 88.878,348.824 110.951,333.516 133,348.799 155.048,333.516 
	177.122,348.824 177.122,256.004 "/>
<path d="M457.33,477.14c-0.65,0-1.3-0.07-1.95-0.2c-0.64-0.12-1.27-0.319-1.87-0.569s-1.18-0.56-1.73-0.92
	c-0.54-0.36-1.05-0.78-1.52-1.24c-1.86-1.86-2.93-4.44-2.93-7.07c0-0.649,0.07-1.309,0.2-1.95c0.13-0.64,0.32-1.27,0.57-1.88
	c0.25-0.6,0.56-1.18,0.92-1.72c0.36-0.55,0.78-1.061,1.24-1.521c0.47-0.46,0.98-0.88,1.52-1.25c0.55-0.359,1.13-0.659,1.73-0.909
	s1.23-0.45,1.87-0.58c1.29-0.261,2.62-0.261,3.91,0c0.64,0.13,1.27,0.33,1.87,0.58s1.18,0.55,1.73,0.909
	c0.54,0.37,1.06,0.79,1.52,1.25s0.88,0.971,1.24,1.521c0.36,0.54,0.67,1.12,0.92,1.72c0.25,0.61,0.44,1.24,0.57,1.88
	c0.13,0.641,0.191,1.301,0.191,1.95c0,0.65-0.06,1.311-0.191,1.95c-0.13,0.64-0.32,1.27-0.57,1.87c-0.25,0.609-0.56,1.189-0.92,1.73
	c-0.37,0.551-0.78,1.06-1.25,1.52C462.54,476.069,459.97,477.14,457.33,477.14z"/>
<path d="M212.2,477.14c-0.66,0-1.31-0.07-1.96-0.2c-0.64-0.12-1.27-0.319-1.87-0.569c-0.6-0.25-1.18-0.56-1.72-0.92
	c-0.55-0.36-1.06-0.78-1.53-1.24c-0.46-0.46-0.87-0.97-1.24-1.52c-0.36-0.54-0.67-1.12-0.92-1.73c-0.25-0.601-0.44-1.23-0.57-1.87
	c-0.13-0.64-0.19-1.3-0.19-1.95c0-0.649,0.06-1.309,0.19-1.95c0.13-0.64,0.32-1.27,0.57-1.88c0.25-0.6,0.56-1.18,0.92-1.72
	c0.37-0.55,0.78-1.061,1.24-1.521c0.47-0.46,0.98-0.88,1.53-1.25c0.54-0.359,1.12-0.659,1.72-0.909s1.23-0.45,1.87-0.58
	c3.25-0.65,6.7,0.42,9.03,2.739c0.46,0.46,0.88,0.971,1.24,1.521c0.36,0.54,0.67,1.12,0.92,1.72c0.25,0.61,0.44,1.24,0.57,1.88
	c0.13,0.641,0.19,1.301,0.19,1.95c0,0.65-0.06,1.311-0.19,1.95c-0.13,0.64-0.32,1.27-0.57,1.87c-0.25,0.609-0.56,1.189-0.92,1.73
	c-0.36,0.551-0.78,1.06-1.24,1.52C217.4,476.069,214.83,477.14,212.2,477.14z"/>
<path d="M502,246.004H389V10.035c0-5.523-4.477-10-10-10H133c-5.523,0-10,4.477-10,10v235.969H10c-5.523,0-10,4.477-10,10v245.961
	c0,5.522,4.477,10,10,10h492c5.523,0,10-4.478,10-10V256.004C512,250.481,507.523,246.004,502,246.004z M344.878,266.004h68.243
	v63.716l-6.375-4.421c-3.426-2.378-7.968-2.378-11.396-0.002L379,336.631l-16.352-11.334c-1.713-1.188-3.705-1.781-5.697-1.781
	s-3.985,0.595-5.699,1.782l-6.375,4.421L344.878,266.004L344.878,266.004z M290.122,20.035v63.716l-6.375-4.421
	c-3.427-2.377-7.969-2.376-11.396-0.001L256,90.663l-16.352-11.334c-1.713-1.188-3.705-1.781-5.697-1.781s-3.985,0.595-5.699,1.782
	l-6.374,4.421V20.035H290.122z M143,20.035h58.878v82.82c0,3.721,2.066,7.134,5.362,8.859c3.297,1.727,7.279,1.479,10.336-0.642
	l16.376-11.357l16.35,11.334c3.427,2.375,7.967,2.375,11.394,0l16.35-11.334l16.376,11.357c1.705,1.183,3.698,1.782,5.7,1.782
	c1.586,0,3.179-0.377,4.637-1.141c3.296-1.725,5.362-5.139,5.362-8.859v-82.82H369v225.969H143V20.035z M167.122,266.004v63.716
	l-6.374-4.421c-3.426-2.378-7.968-2.378-11.396-0.002L133,336.631l-16.352-11.334c-1.713-1.188-3.705-1.781-5.697-1.781
	s-3.985,0.595-5.699,1.782l-6.374,4.421v-63.715H167.122z M20,477.139h151.895c5.523,0,10-4.478,10-10s-4.477-10-10-10H20V266.004
	h58.878v82.819c0,3.721,2.066,7.134,5.362,8.859c3.297,1.728,7.279,1.48,10.336-0.642l16.376-11.357l16.35,11.334
	c3.427,2.375,7.967,2.375,11.394,0l16.35-11.333l16.376,11.356c1.705,1.184,3.698,1.783,5.7,1.783c1.586,0,3.179-0.377,4.636-1.141
	c3.297-1.726,5.363-5.139,5.363-8.859v-82.82H246v225.961H20V477.139z M492,491.965H266v-14.826h151.035c5.523,0,10-4.478,10-10
	s-4.477-10-10-10H266V266.004h58.878v82.819c0,3.721,2.066,7.134,5.362,8.859c3.297,1.728,7.279,1.48,10.336-0.642l16.376-11.357
	l16.35,11.334c3.427,2.375,7.967,2.375,11.394,0l16.35-11.333l16.376,11.356c1.705,1.184,3.698,1.783,5.7,1.783
	c1.586,0,3.179-0.377,4.636-1.141c3.297-1.726,5.363-5.139,5.363-8.859v-82.82H492V491.965z"/>
<g>
</g>
<g>
</g>
<g>
</g>
<g>
</g>
<g>
</g>
<g>
</g>
<g>
</g>
<g>
</g>
<g>
</g>
<g>
</g>
<g>
</g>
<g>
</g>
<g>
</g>
<g>
</g>
<g>
</g>
</svg>
