<?xml version="1.0" encoding="UTF-8"?>
<svg width="58px" height="58px" viewBox="0 0 58 58" version="1.1" xmlns="http://www.w3.org/2000/svg" xmlns:xlink="http://www.w3.org/1999/xlink">
    <!-- Generator: sketchtool 58 (101010) - https://sketch.com -->
    <title>BE1E52C2-4E9A-49CC-A55C-D3DC300B327E</title>
    <desc>Created with sketchtool.</desc>
    <g id="Home-&amp;-Layanan" stroke="none" stroke-width="1" fill="none" fill-rule="evenodd">
        <g id="Main-Layanan" transform="translate(-178.000000, -263.000000)">
            <g id="Group-12-Copy" transform="translate(178.000000, 263.000000)">
                <path d="M17.3062251,2.07641932e-16 L40.6937749,6.99192208e-16 C46.7115264,-4.06250808e-16 48.8937085,0.626572875 51.0937085,1.80314575 C53.2937085,2.97971863 55.0202814,4.7062915 56.1968542,6.9062915 C57.3734271,9.1062915 58,11.2884736 58,17.3062251 L58,40.6937749 C58,46.7115264 57.3734271,48.8937085 56.1968542,51.0937085 C55.0202814,53.2937085 53.2937085,55.0202814 51.0937085,56.1968542 C48.8937085,57.3734271 46.7115264,58 40.6937749,58 L17.3062251,58 C11.2884736,58 9.1062915,57.3734271 6.9062915,56.1968542 C4.7062915,55.0202814 2.97971863,53.2937085 1.80314575,51.0937085 C0.626572875,48.8937085 -2.56062878e-16,46.7115264 4.40706001e-16,40.6937749 L4.66128138e-16,17.3062251 C-2.70833872e-16,11.2884736 0.626572875,9.1062915 1.80314575,6.9062915 C2.97971863,4.7062915 4.7062915,2.97971863 6.9062915,1.80314575 C9.1062915,0.626572875 11.2884736,-1.20645942e-16 17.3062251,2.07641932e-16 Z" id="App-Icon-Copy-30" fill="#EB6D44"></path>
                <path d="M35.4371429,11 L21.7057143,11 C19.10682,11 17,13.10682 17,15.7057143 L17,42.2942857 C17,44.89318 19.10682,47 21.7057143,47 L35.4371429,47 C38.0360371,47 40.1428571,44.89318 40.1428571,42.2942857 L40.1428571,15.7057143 C40.1428571,13.10682 38.0360371,11 35.4371429,11 L35.4371429,11 Z M37.5714286,42.2942857 C37.5714286,43.4730192 36.6158763,44.4285714 35.4371429,44.4285714 L21.7057143,44.4285714 C20.5269808,44.4285714 19.5714286,43.4730192 19.5714286,42.2942857 L19.5714286,15.7057143 C19.5714286,14.5269808 20.5269808,13.5713735 21.7057143,13.5713735 L22.9914286,13.5713735 C23.4206926,13.5670818 23.8107706,13.8203791 23.9814286,14.2142857 L24.2192857,14.8057143 C24.5422861,15.5854334 25.3038855,16.0931663 26.1478571,16.0914286 L31.0464286,16.0914286 C31.8904002,16.0931663 32.6519996,15.5854334 32.975,14.8057143 L33.1871429,14.2142857 C33.3578009,13.8203791 33.7478788,13.5670818 34.1771429,13.5713735 L35.4628571,13.5713735 C36.6315363,13.5855101 37.5714286,14.5369503 37.5714286,15.7057143 L37.5714286,42.2942857 Z" id="Shape-Copy-3" fill="#FFFFFF" fill-rule="nonzero"></path>
                <g id="iconfinder_wifi_Symbol_925808" transform="translate(24.000000, 24.000000)" fill="#FFFFFF" fill-rule="nonzero">
                    <path d="M5,5.67982456 C4.40600509,5.67982456 3.81201018,5.93567251 3.42766053,6.41081871 C3.07825176,6.8494152 2.44931597,6.26461988 2.79872474,5.82602339 C3.35777878,5.16812865 4.16141895,4.80263158 5,4.80263158 C5.83858105,4.80263158 6.64222122,5.16812865 7.20127526,5.82602339 C7.55068403,6.26461988 6.92174824,6.8494152 6.57233947,6.41081871 C6.18798982,5.93567251 5.59399491,5.67982456 5,5.67982456 Z M5,8.75 C4.5457686,8.75 4.16141895,8.34795322 4.16141895,7.87280702 C4.16141895,7.39766082 4.5457686,6.99561404 5,6.99561404 C5.4542314,6.99561404 5.83858105,7.39766082 5.83858105,7.87280702 C5.83858105,8.34795322 5.4542314,8.75 5,8.75 Z M5,3.48684211 C3.88189193,3.48684211 2.8686065,3.88888889 2.06496632,4.72953216 C1.71555755,5.09502924 1.05168089,4.54678363 1.47097141,4.10818713 C2.41437509,3.12134503 3.67224667,2.60964912 5,2.60964912 C6.32775333,2.60964912 7.58562491,3.12134503 8.52902859,4.10818713 C8.94831911,4.54678363 8.28444245,5.09502924 7.93503368,4.72953216 C7.1313935,3.88888889 6.11810807,3.48684211 5,3.48684211 Z M5,1.29385965 C3.39271965,1.29385965 1.89026194,1.91520468 0.737212992,3.04824561 C0.317922467,3.4502924 -0.276072444,2.82894737 0.143218081,2.42690058 C1.50591229,1.11111111 3.18307439,0.416666667 5,0.416666667 C6.81692561,0.416666667 8.49408771,1.11111111 9.85678192,2.42690058 C10.2760724,2.82894737 9.68207753,3.4502924 9.26278701,3.04824561 C8.10973806,1.91520468 6.60728035,1.29385965 5,1.29385965 Z" id="Shape"></path>
                </g>
            </g>
        </g>
    </g>
</svg>