<?xml version="1.0"?>
<svg xmlns="http://www.w3.org/2000/svg" height="512px" viewBox="0 0 64 64" width="512px" class=""><g><g id="Finance"><path d="m13 11h42v26h-42z" fill="#5eac24" data-original="#5EAC24" class="active-path" style="fill:#5EAC24"/><path d="m51 18v12a3 3 0 0 0 -3 3h-28a3 3 0 0 0 -3-3v-12a3 3 0 0 0 3-3h28a3 3 0 0 0 3 3z" fill="#7ed63e" data-original="#7ED63E" class="" style="fill:#7ED63E"/><path d="m34 37h21v-19c0 15.477-5.523 19-21 19z" fill="#447e1a" data-original="#447E1A" class=""/><path d="m19 8h39v23h3v-26h-42z" fill="#3b6c17" data-original="#3B6C17" class=""/><path d="m19 8h-3v3h39v23h3v-3-23z" fill="#4e901e" data-original="#4E901E"/><circle cx="34" cy="24" fill="#b2fa09" r="5" data-original="#B2FA09" class="" style="fill:#B2FA09"/><rect fill="#d1d3d4" height="26" rx="4" width="42" x="3" y="33" data-original="#D1D3D4" class=""/><circle cx="31" cy="52" fill="#f7941d" r="3" data-original="#F7941D" class=""/><circle cx="36" cy="52" fill="#f15a29" r="3" data-original="#F15A29" class=""/><path d="m13 43h2a2 2 0 0 0 2-2v-1h-4z" fill="#ee8700" data-original="#EE8700" class=""/><path d="m11 43h2v-6h-2a2 2 0 0 0 -2 2v2a2 2 0 0 0 2 2z" fill="#ff9811" data-original="#FF9811"/><path d="m17 40v-1a2 2 0 0 0 -2-2h-2v3z" fill="#ffb655" data-original="#FFB655"/><path d="m23 59h18a4 4 0 0 0 4-4v-18c0 15.477-6.523 22-22 22z" fill="#bcbec0" data-original="#BCBEC0"/><g fill="#231f20"><path d="m47 33a1 1 0 0 0 2 0 2 2 0 0 1 2-2 1 1 0 0 0 1-1v-12a1 1 0 0 0 -1-1 2 2 0 0 1 -2-2 1 1 0 0 0 -1-1h-28a1 1 0 0 0 -1 1 2 2 0 0 1 -2 2 1 1 0 0 0 -1 1v12a1 1 0 0 0 2 0v-11.126a4.016 4.016 0 0 0 2.874-2.874h26.252a4.016 4.016 0 0 0 2.874 2.874v10.252a4.009 4.009 0 0 0 -3 3.874z" data-original="#231F20" class="" style="fill:#231F20"/><path d="m46 23h-2a1 1 0 0 0 0 2h2a1 1 0 0 0 0-2z" data-original="#231F20" class="" style="fill:#231F20"/><path d="m22 23a1 1 0 0 0 0 2h2a1 1 0 0 0 0-2z" data-original="#231F20" class="" style="fill:#231F20"/><path d="m28 24a6 6 0 1 0 6-6 6.006 6.006 0 0 0 -6 6zm10 0a4 4 0 1 1 -4-4 4 4 0 0 1 4 4z" data-original="#231F20" class="" style="fill:#231F20"/><path d="m61 4h-42a1 1 0 0 0 -1 1v2h-2a1 1 0 0 0 -1 1v2h-2a1 1 0 0 0 -1 1v19a1 1 0 0 0 2 0v-18h40v24h-6a1 1 0 0 0 0 2h7a1 1 0 0 0 1-1v-2h2a1 1 0 0 0 1-1v-2h2a1 1 0 0 0 1-1v-26a1 1 0 0 0 -1-1zm-4 29h-1v-22a1 1 0 0 0 -1-1h-38v-1h40zm3-3h-1v-22a1 1 0 0 0 -1-1h-38v-1h40z" data-original="#231F20" class="" style="fill:#231F20"/><path d="m41 32h-34a5.006 5.006 0 0 0 -5 5v18a5.006 5.006 0 0 0 5 5h34a5.006 5.006 0 0 0 5-5v-18a5.006 5.006 0 0 0 -5-5zm3 23a3 3 0 0 1 -3 3h-34a3 3 0 0 1 -3-3v-18a3 3 0 0 1 3-3h34a3 3 0 0 1 3 3z" data-original="#231F20" class="" style="fill:#231F20"/><path d="m36 48a3.986 3.986 0 0 0 -2.51.894 4 4 0 1 0 0 6.212 4 4 0 1 0 2.51-7.106zm-5 6a2 2 0 1 1 2-2 2 2 0 0 1 -2 2zm5 0a1.968 1.968 0 0 1 -1.3-.486 3.946 3.946 0 0 0 0-3.028 1.968 1.968 0 0 1 1.3-.486 2 2 0 0 1 0 4z" data-original="#231F20" class="" style="fill:#231F20"/><path d="m11 44h4a3 3 0 0 0 3-3v-2a3 3 0 0 0 -3-3h-4a3 3 0 0 0 -3 3v2a3 3 0 0 0 3 3zm4-2h-1v-1h2a1 1 0 0 1 -1 1zm1-3h-2v-1h1a1 1 0 0 1 1 1zm-6 0a1 1 0 0 1 1-1h1v4h-1a1 1 0 0 1 -1-1z" data-original="#231F20" class="" style="fill:#231F20"/><path d="m30 38h2v4h-2z" data-original="#231F20" class="" style="fill:#231F20"/><path d="m34 38h2v4h-2z" data-original="#231F20" class="" style="fill:#231F20"/><path d="m26 38h2v4h-2z" data-original="#231F20" class="" style="fill:#231F20"/><path d="m38 38h2v4h-2z" data-original="#231F20" class="" style="fill:#231F20"/><path d="m8 54h14v2h-14z" data-original="#231F20" class="" style="fill:#231F20"/><path d="m8 51h2v2h-2z" data-original="#231F20" class="" style="fill:#231F20"/><path d="m12 51h2v2h-2z" data-original="#231F20" class="" style="fill:#231F20"/><path d="m16 51h2v2h-2z" data-original="#231F20" class="" style="fill:#231F20"/><path d="m20 51h2v2h-2z" data-original="#231F20" class="" style="fill:#231F20"/></g></g></g> </svg>
