<?xml version="1.0" encoding="UTF-8"?>
<svg width="81px" height="24px" viewBox="0 0 81 24" version="1.1" xmlns="http://www.w3.org/2000/svg" xmlns:xlink="http://www.w3.org/1999/xlink">
    <!-- Generator: sketchtool 59.1 (101010) - https://sketch.com -->
    <title>3E4C650C-4CE6-4955-8D97-50EA46D2E023</title>
    <desc>Created with sketchtool.</desc>
    <g id="Page-1" stroke="none" stroke-width="1" fill="none" fill-rule="evenodd">
        <g id="Nexus-7" transform="translate(-30.000000, -20.000000)">
            <g id="Group-7" transform="translate(30.000000, 20.000000)">
                <g id="Group-2" transform="translate(0.000000, 0.000000)">
                    <path d="M5.1581063,3.13623712 C5.24633233,1.94865913 6.11418965,0.927227155 7.35501557,0.550566269 C8.59584148,0.173905383 9.96379005,0.516643744 10.8178646,1.41818018 C11.6719392,2.31971662 11.8429212,3.60142891 11.2506915,4.6627292 C10.6584618,5.7240295 9.42035932,6.35464142 8.1165372,6.25907131 C6.33663275,6.12341596 5.01322442,4.702379 5.1581063,3.08239515 L5.1581063,3.13623712 Z M15.5126145,3.13623712 C15.6008405,1.94865913 16.4686978,0.927227155 17.7095237,0.550566269 C18.9503496,0.173905383 20.3182982,0.516643744 21.1723728,1.41818018 C22.0264474,2.31971662 22.1974294,3.60142891 21.6051996,4.6627292 C21.0129699,5.7240295 19.7748675,6.35464142 18.4710454,6.25907131 C17.602563,6.21480189 16.791009,5.85169171 16.2221715,5.25286715 C15.6533339,4.65404259 15.3759229,3.87078159 15.4534458,3.08239515 L15.5126145,3.13623712 Z" id="Shape" fill="#231F20"></path>
                    <path d="M25.2624245,4.1338152 C26.107778,8.25072701 25.3539677,12.506925 23.1300007,16.1740022 C19.0122169,23.1305546 11.2619594,25.9800655 5.80589582,22.5419233 C0.761610616,19.3980967 -0.54725639,11.9198028 2.62931972,5.36458986 C2.70208135,5.21537672 2.86179197,5.11679088 3.0410981,5.11040814 C3.16210289,5.11727973 3.27511495,5.16771358 3.35514747,5.25055884 C3.43518,5.3334041 3.47564037,5.44183645 3.46758285,5.55188166 C3.15874907,9.56527732 4.5558543,13.2576013 7.49712847,15.1171413 C12.1296353,18.0335421 18.8504468,15.411457 22.4976267,9.25758365 C23.43953,7.67066829 24.1043612,5.96013702 24.4682804,4.18732714 C24.4682804,3.97306187 24.6592242,3.79936556 24.8947652,3.79936556 C25.1303062,3.79936556 25.32125,3.97306187 25.32125,4.18732714 L25.2624245,4.1338152 Z" id="Shape" fill="#FF2800"></path>
                </g>
                <path d="M37.4937468,11.4852713 L38.2346253,11.4852713 C39.4870691,11.4852713 40.4726924,11.2000029 41.1915245,10.6294574 C41.9103567,10.0589119 42.2697674,9.29406164 42.2697674,8.33488372 C42.2697674,6.84650419 41.4098277,6.10232558 39.6899225,6.10232558 L38.7109044,6.10232558 L37.4937468,11.4852713 Z M46.3313695,8.23565891 C46.3313695,10.2284337 45.5838834,11.793276 44.0888889,12.9302326 C42.5938943,14.0671891 40.532244,14.6356589 37.903876,14.6356589 L36.7660982,14.6356589 L35.324031,21.0852713 L31.2888889,21.0852713 L35.3769509,2.95193798 L39.8486822,2.95193798 C41.9831287,2.95193798 43.5971694,3.39224366 44.6908527,4.27286822 C45.784536,5.15349278 46.3313695,6.4744098 46.3313695,8.23565891 Z M65.2502326,9.45116279 C65.2502326,11.7912262 64.8136478,13.8852621 63.9404651,15.7333333 C63.0672825,17.5814046 61.8721867,18.9767395 60.3551421,19.9193798 C58.8380975,20.8620202 57.0917584,21.3333333 55.1160724,21.3333333 C52.8581455,21.3333333 51.0963715,20.7235203 49.8306977,19.503876 C48.5650238,18.2842316 47.9321964,16.5912253 47.9321964,14.4248062 C47.9321964,12.2335808 48.3687812,10.2180971 49.2419638,8.37829457 C50.1151465,6.53849209 51.3190698,5.12661991 52.8537468,4.14263566 C54.3884314,3.15865141 56.1612303,2.66666667 58.1721964,2.66666667 C60.4213032,2.66666667 62.1632324,3.26200955 63.3980362,4.45271318 C64.6328399,5.64341681 65.2502326,7.30955002 65.2502326,9.45116279 Z M57.841447,5.86666667 C56.7742238,5.86666667 55.7952155,6.24495746 54.9043928,7.00155039 C54.0135701,7.75814332 53.3145934,8.7979262 52.8074419,10.1209302 C52.3002903,11.4439343 52.0467183,12.8785452 52.0467183,14.4248062 C52.0467183,15.6403162 52.3399798,16.5581364 52.9265116,17.1782946 C53.5130434,17.7984527 54.3399085,18.1085271 55.4071318,18.1085271 C56.474355,18.1085271 57.4467484,17.7488408 58.3243411,17.0294574 C59.2019338,16.3100739 59.8876806,15.2930298 60.3816021,13.9782946 C60.8755236,12.6635593 61.1224806,11.1876051 61.1224806,9.5503876 C61.1224806,8.37622152 60.835834,7.46873705 60.2625323,6.82790698 C59.6892306,6.1870769 58.8822102,5.86666667 57.841447,5.86666667 Z M78.5992765,15.7271318 C78.5992765,17.4553058 77.9466043,18.8217004 76.6412403,19.8263566 C75.3358763,20.8310128 73.5674875,21.3333333 71.3360207,21.3333333 C69.3867947,21.3333333 67.8168535,20.961244 66.6261499,20.2170543 L66.6261499,16.8186047 C68.3284151,17.7116324 69.9071762,18.1581395 71.3624806,18.1581395 C72.3503236,18.1581395 73.1220644,17.9824307 73.6777261,17.6310078 C74.2333878,17.2795848 74.5112145,16.7979359 74.5112145,16.1860465 C74.5112145,15.8304892 74.4516802,15.5183476 74.3326098,15.2496124 C74.2135395,14.9808772 74.0437565,14.7307505 73.8232558,14.4992248 C73.6027551,14.2676991 73.0559217,13.8459979 72.182739,13.2341085 C70.9655753,12.4154998 70.1100455,11.605172 69.616124,10.8031008 C69.1222025,10.0010296 68.8752455,9.13695553 68.8752455,8.21085271 C68.8752455,7.14418071 69.1486622,6.19121867 69.6955039,5.35193798 C70.2423455,4.5126573 71.0207012,3.85943386 72.0305943,3.39224806 C73.0404874,2.92506226 74.2025085,2.69147287 75.5166925,2.69147287 C77.4306383,2.69147287 79.1813874,3.1007711 80.7689922,3.91937984 L79.3269251,6.80930233 C77.9510009,6.19741296 76.6809361,5.89147287 75.5166925,5.89147287 C74.7846303,5.89147287 74.1848774,6.07751752 73.717416,6.4496124 C73.2499546,6.82170729 73.0162274,7.31369203 73.0162274,7.9255814 C73.0162274,8.42997668 73.1617557,8.87028236 73.4528165,9.24651163 C73.7438774,9.6227409 74.3965496,10.1209271 75.4108527,10.7410853 C76.478076,11.4025873 77.2762764,12.1322958 77.805478,12.9302326 C78.3346796,13.7281694 78.5992765,14.6604598 78.5992765,15.7271318 Z" id="POS" fill="#484848" fill-rule="nonzero"></path>
            </g>
        </g>
    </g>
</svg>