<?xml version="1.0" encoding="UTF-8"?>
<svg width="60px" height="60px" viewBox="0 0 60 60" version="1.1" xmlns="http://www.w3.org/2000/svg" xmlns:xlink="http://www.w3.org/1999/xlink">
    <!-- Generator: sketchtool 58 (101010) - https://sketch.com -->
    <title>D502D496-4C7A-419F-AF00-84F1413F27C9</title>
    <desc>Created with sketchtool.</desc>
    <g id="Home-&amp;-Layanan" stroke="none" stroke-width="1" fill="none" fill-rule="evenodd">
        <g id="Main-Layanan" transform="translate(-45.000000, -263.000000)">
            <g id="Group-9" transform="translate(45.000000, 263.000000)">
                <path d="M32.456945,33.4568679 C29.2901377,36.6236226 25.6229291,39.6507793 24.1737258,38.2012 C22.098121,36.1260297 20.818518,34.3184556 16.2437074,37.995203 C11.6684967,41.6735503 15.1825049,44.1243152 17.1929096,46.1354865 C19.512915,48.4550533 28.161335,46.2574847 36.7097549,37.710407 C45.2569748,29.1613294 47.4561799,20.5130531 45.1345745,18.1922864 C43.1237698,16.1815151 40.6729641,12.6687654 36.9961556,17.2442999 C33.318547,21.8178345 35.1253512,23.0978162 37.201356,25.1733865 C38.6501594,26.6229657 35.6237524,30.2897132 32.456945,33.4568679 Z" id="Path-Copy-3" fill="#FFFFFF" fill-rule="nonzero" transform="translate(30.000000, 31.000000) scale(-1, 1) translate(-30.000000, -31.000000) "></path>
                <path d="M17.3062251,-6.99192208e-16 L42.6937749,6.99192208e-16 C48.7115264,-4.06250808e-16 50.8937085,0.626572875 53.0937085,1.80314575 C55.2937085,2.97971863 57.0202814,4.7062915 58.1968542,6.9062915 C59.3734271,9.1062915 60,11.2884736 60,17.3062251 L60,42.6937749 C60,48.7115264 59.3734271,50.8937085 58.1968542,53.0937085 C57.0202814,55.2937085 55.2937085,57.0202814 53.0937085,58.1968542 C50.8937085,59.3734271 48.7115264,60 42.6937749,60 L17.3062251,60 C11.2884736,60 9.1062915,59.3734271 6.9062915,58.1968542 C4.7062915,57.0202814 2.97971863,55.2937085 1.80314575,53.0937085 C0.626572875,50.8937085 2.70833872e-16,48.7115264 -4.66128138e-16,42.6937749 L4.66128138e-16,17.3062251 C-2.70833872e-16,11.2884736 0.626572875,9.1062915 1.80314575,6.9062915 C2.97971863,4.7062915 4.7062915,2.97971863 6.9062915,1.80314575 C9.1062915,0.626572875 11.2884736,4.06250808e-16 17.3062251,-6.99192208e-16 Z" id="App-Icon-Copy-26" fill="#EB6D44"></path>
                <path d="M36.4371429,11 L22.7057143,11 C20.10682,11 18,13.10682 18,15.7057143 L18,42.2942857 C18,44.89318 20.10682,47 22.7057143,47 L36.4371429,47 C39.0360371,47 41.1428571,44.89318 41.1428571,42.2942857 L41.1428571,15.7057143 C41.1428571,13.10682 39.0360371,11 36.4371429,11 L36.4371429,11 Z M38.5714286,42.2942857 C38.5714286,43.4730192 37.6158763,44.4285714 36.4371429,44.4285714 L22.7057143,44.4285714 C21.5269808,44.4285714 20.5714286,43.4730192 20.5714286,42.2942857 L20.5714286,15.7057143 C20.5714286,14.5269808 21.5269808,13.5713735 22.7057143,13.5713735 L23.9914286,13.5713735 C24.4206926,13.5670818 24.8107706,13.8203791 24.9814286,14.2142857 L25.2192857,14.8057143 C25.5422861,15.5854334 26.3038855,16.0931663 27.1478571,16.0914286 L32.0464286,16.0914286 C32.8904002,16.0931663 33.6519996,15.5854334 33.975,14.8057143 L34.1871429,14.2142857 C34.3578009,13.8203791 34.7478788,13.5670818 35.1771429,13.5713735 L36.4628571,13.5713735 C37.6315363,13.5855101 38.5714286,14.5369503 38.5714286,15.7057143 L38.5714286,42.2942857 Z" id="Shape-Copy" fill="#FFFFFF" fill-rule="nonzero"></path>
                <path d="M30.7677953,30.7677712 C29.778168,31.7573821 28.6321654,32.7033685 28.1792893,32.250375 C27.5306628,31.6018843 27.1307869,31.0370174 25.7011586,32.1860009 C24.2714052,33.3354845 25.3695328,34.1013485 25.9977842,34.7298395 C26.7227859,35.4547041 29.4254172,34.767964 32.0967984,32.0970022 C34.7678046,29.4254154 35.4550562,26.7228291 34.7295545,25.9975895 C34.1011781,25.3692235 33.3353013,24.2714892 32.1862986,25.7013437 C31.0370459,27.1305733 31.6016723,27.5305675 32.2504238,28.1791833 C32.7031748,28.6321768 31.7574226,29.7780354 30.7677953,30.7677712 Z" id="Path-Copy-4" fill="#FFFFFF" fill-rule="nonzero" transform="translate(30.000000, 30.000000) scale(-1, 1) translate(-30.000000, -30.000000) "></path>
            </g>
        </g>
    </g>
</svg>