<?xml version="1.0"?>
<svg xmlns="http://www.w3.org/2000/svg" xmlns:xlink="http://www.w3.org/1999/xlink" version="1.1" id="Capa_1" x="0px" y="0px" viewBox="0 0 512 512" style="enable-background:new 0 0 512 512;" xml:space="preserve" width="512px" height="512px" class=""><g><polyline style="fill:#FFCA6F;" points="34.009,157.699 34.009,487.812 477.991,487.812 477.991,157.699 " data-original="#FFCA6F" class=""/><g>
	<polyline style="fill:#CF947C;" points="477.991,157.699 477.991,110.64 34.009,110.64 34.009,157.699 177.667,157.699  " data-original="#CF947C" class=""/>
</g><rect x="10" y="24.19" style="fill:#9A6E5E;" width="492" height="86.45" data-original="#9A6E5E" class=""/><rect x="180.08" y="24.19" style="fill:#DFAC8E;" width="151.84" height="86.45" data-original="#DFAC8E" class=""/><polygon style="fill:#FFE0AD;" points="180.083,110.64 180.083,270.381 218.062,244.037 256,270.339 293.938,244.037   331.917,270.381 331.917,110.64 " data-original="#FFE0AD" class=""/><path d="M425.81,167.7c-0.65,0-1.31-0.07-1.95-0.2c-0.64-0.13-1.27-0.32-1.87-0.57s-1.18-0.56-1.73-0.92  c-0.54-0.36-1.06-0.78-1.52-1.24c-1.86-1.86-2.93-4.44-2.93-7.07s1.07-5.21,2.93-7.07c0.46-0.46,0.98-0.88,1.52-1.25  c0.55-0.36,1.13-0.67,1.73-0.92s1.23-0.44,1.87-0.57c1.29-0.26,2.62-0.26,3.91,0c0.64,0.13,1.27,0.32,1.87,0.57s1.18,0.56,1.72,0.92  c0.55,0.37,1.06,0.79,1.53,1.25c1.86,1.86,2.921,4.44,2.921,7.07s-1.06,5.21-2.921,7.07c-0.47,0.46-0.98,0.88-1.53,1.24  c-0.54,0.36-1.12,0.67-1.72,0.92s-1.23,0.44-1.87,0.57C427.12,167.63,426.47,167.7,425.81,167.7z" data-original="#000000" class=""/><rect x="291.56" y="301.37" style="fill:#0062CB" width="186.43" height="186.44" data-original="#318DB6" class="active-path" data-old_color="#318DB6"/><path d="M502,14.188H10c-5.523,0-10,4.477-10,10v86.452c0,5.523,4.477,10,10,10h14.009v367.172c0,5.523,4.477,10,10,10h443.982  c5.523,0,10-4.477,10-10V120.64H502c5.523,0,10-4.477,10-10V24.188C512,18.665,507.523,14.188,502,14.188z M190.082,120.64h131.835  v130.635l-22.281-15.455c-3.427-2.377-7.97-2.377-11.397-0.001L256,258.17l-32.24-22.352c-1.714-1.188-3.706-1.782-5.698-1.782  c-1.993,0-3.986,0.595-5.699,1.783l-22.281,15.455L190.082,120.64L190.082,120.64z M321.917,34.188v66.452H190.082V34.188H321.917z   M20,34.188h150.082v66.452H20V34.188z M170.082,120.64v27.06H44.009v-27.06H170.082z M467.991,477.812H301.56V311.374h166.431  V477.812z M467.991,291.374H291.56c-5.523,0-10,4.477-10,10v176.438H44.009V167.699h126.074v102.682c0,3.721,2.066,7.134,5.363,8.86  c3.297,1.726,7.28,1.478,10.337-0.643l32.282-22.392l32.238,22.351c3.427,2.376,7.969,2.376,11.396,0l32.238-22.351l32.282,22.392  c1.706,1.183,3.699,1.783,5.701,1.783c1.586,0,3.179-0.378,4.636-1.14c3.297-1.726,5.363-5.139,5.363-8.86V167.699h43.862  c5.523,0,10-4.477,10-10s-4.477-10-10-10h-43.862v-27.06h126.074v170.735H467.991z M492,100.64H341.917V34.188H492V100.64z" data-original="#000000" class=""/><path d="M382.241,430.196c-2.344,0-4.628-0.825-6.441-2.351l-32.26-27.168c-4.225-3.558-4.765-9.866-1.208-14.09  c3.558-4.225,9.867-4.764,14.09-1.208l24.057,20.259L411.49,363.1c3.253-4.463,9.509-5.443,13.972-2.19  c4.462,3.253,5.443,9.509,2.189,13.972l-37.329,51.206c-1.634,2.241-4.125,3.703-6.879,4.037  C383.042,430.172,382.641,430.196,382.241,430.196z" data-original="#000000" class=""/></g> </svg>
