<?xml version="1.0" encoding="UTF-8"?>
<svg width="60px" height="60px" viewBox="0 0 60 60" version="1.1" xmlns="http://www.w3.org/2000/svg" xmlns:xlink="http://www.w3.org/1999/xlink">
    <!-- Generator: sketchtool 58 (101010) - https://sketch.com -->
    <title>B709413A-F29C-4512-8820-7E10D592116B</title>
    <desc>Created with sketchtool.</desc>
    <g id="Home-&amp;-Layanan" stroke="none" stroke-width="1" fill="none" fill-rule="evenodd">
        <g id="Main-Layanan" transform="translate(-309.000000, -263.000000)">
            <g id="Group-11" transform="translate(309.000000, 263.000000)">
                <path d="M17.3062251,-6.99192208e-16 L42.6937749,6.99192208e-16 C48.7115264,-4.06250808e-16 50.8937085,0.626572875 53.0937085,1.80314575 C55.2937085,2.97971863 57.0202814,4.7062915 58.1968542,6.9062915 C59.3734271,9.1062915 60,11.2884736 60,17.3062251 L60,42.6937749 C60,48.7115264 59.3734271,50.8937085 58.1968542,53.0937085 C57.0202814,55.2937085 55.2937085,57.0202814 53.0937085,58.1968542 C50.8937085,59.3734271 48.7115264,60 42.6937749,60 L17.3062251,60 C11.2884736,60 9.1062915,59.3734271 6.9062915,58.1968542 C4.7062915,57.0202814 2.97971863,55.2937085 1.80314575,53.0937085 C0.626572875,50.8937085 2.70833872e-16,48.7115264 -4.66128138e-16,42.6937749 L4.66128138e-16,17.3062251 C-2.70833872e-16,11.2884736 0.626572875,9.1062915 1.80314575,6.9062915 C2.97971863,4.7062915 4.7062915,2.97971863 6.9062915,1.80314575 C9.1062915,0.626572875 11.2884736,4.06250808e-16 17.3062251,-6.99192208e-16 Z" id="App-Icon-Copy-24" fill="#EB6D44"></path>
                <g id="iconfinder_gamepad_3079989" transform="translate(12.000000, 12.000000)" fill="#FFFFFF" fill-rule="nonzero">
                    <path d="M2.82947368,28.2568421 C2.04887522,27.7488065 1.35211352,27.1223602 0.764210526,26.4 C0.764210526,26.4505263 0.764210526,26.5010526 0.764210526,26.5515789 L0.290526316,28.3831579 C-0.48,31.3515789 0.833684211,34.5915789 3.44842105,35.6463158 C5.42526316,36.4547368 7.69894737,35.4189474 9.16421053,33.6315789 C10.6164017,31.9262258 12.7540479,30.9581477 14.9936842,30.9915789 L20.4568421,30.9915789 C22.7628005,30.9911083 24.9487813,32.0192603 26.4189474,33.7957895 C27.6252632,35.2547368 29.3368421,36.2147368 30.9789474,35.9494737 C34.1368421,35.4315789 36.0884211,31.9136842 35.2168421,28.5726316 L34.7052632,26.6147368 C34.4530504,25.6054274 34.5259919,24.5422495 34.9136842,23.5768421 C35.4104482,22.2926971 35.5480044,20.8974839 35.3115789,19.5410526 L35.3115789,19.5410526 C34.7676233,16.4193822 32.3390487,13.9656149 29.2231579,13.3894737 L29.2231579,13.3894737 L28.8757895,13.3389474 L28.3831579,13.2631579 L28.0736842,13.2631579 L27.6442105,13.2631579 L27.3284211,13.2631579 L26.9115789,13.3010526 L26.6147368,13.3389474 L26.1915789,13.4147368 L25.9326316,13.4778947 L25.4842105,13.6042105 L25.2757895,13.6736842 C25.1052632,13.7305263 24.9410526,13.8 24.7831579,13.8694737 L24.6442105,13.9263158 C24.4463158,14.0189474 24.2526316,14.1178947 24.0631579,14.2231579 L24.0631579,14.2231579 C23.8568421,14.3410526 23.6589474,14.4673684 23.4694737,14.6021053 L23.4126316,14.64 C21.9393096,15.695309 20.8929093,17.2436229 20.4631579,19.0042105 C20.3969974,19.2979911 20.1326273,19.5041998 19.8315789,19.4968421 L19.8315789,19.4968421 C19.6355706,19.5021156 19.44823,19.4160527 19.3245373,19.2639106 C19.2008446,19.1117686 19.1548308,18.9108058 19.2,18.72 C19.4678499,17.6278232 19.9415793,16.5967651 20.5957895,15.6821053 C20.2775352,15.7243332 19.956833,15.745432 19.6357895,15.7452632 L15.7894737,15.7452632 C14.4171322,15.7516381 13.0754333,15.339655 11.9431579,14.5642105 C10.610205,13.6554695 9.02040787,13.1993439 7.40842105,13.2631579 L6.92842105,13.2631579 L6.65052632,13.2947368 C6.45473684,13.2947368 6.25894737,13.3452632 6.06315789,13.3894737 L6.06315789,13.3894737 C3.37300911,13.9516567 1.19798701,15.9260934 0.378947368,18.5494737 L0.378947368,18.5494737 C0.237460019,19.0086205 0.140175678,19.480238 0.0884210526,19.9578947 C0.0884210526,20.0147368 0.0884210526,20.0715789 0.0884210526,20.1284211 C0.0884210526,20.3094737 0.0884210526,20.4926316 0.0884210526,20.6778947 C0.0884210526,20.7284211 0.0884210526,20.7789474 0.0884210526,20.8294737 C0.0917079882,21.1294075 0.112797717,21.4288816 0.151578947,21.7263158 C0.151578947,21.7768421 0.151578947,21.8210526 0.151578947,21.8715789 C0.180997397,22.1624608 0.227392299,22.4513745 0.290526316,22.7368421 L0.341052632,22.9326316 C0.848392102,24.6830731 1.96949952,26.1920837 3.49894737,27.1831579 C3.75527858,27.3812149 3.8202101,27.7410907 3.64925856,28.0162413 C3.47830703,28.2913919 3.12690417,28.3925984 2.83578947,28.2505263 L2.82947368,28.2568421 Z M27.7894737,24 C27.1790537,24 26.6842105,23.5051568 26.6842105,22.8947368 C26.6842105,22.2843169 27.1790537,21.7894737 27.7894737,21.7894737 C28.3998937,21.7894737 28.8947368,22.2843169 28.8947368,22.8947368 C28.8947368,23.5051568 28.3998937,24 27.7894737,24 Z M29.8231579,19.7557895 C30.2719052,19.7558554 30.6760711,20.0272404 30.845975,20.4425798 C31.015879,20.8579192 30.9177924,21.3347619 30.5977488,21.6493191 C30.2777051,21.9638762 29.7992378,22.0537036 29.3868981,21.876644 C28.9745584,21.6995843 28.7102019,21.2907866 28.7178947,20.8421053 C28.7178947,20.2316853 29.2127379,19.7368421 29.8231579,19.7368421 L29.8231579,19.7557895 Z M27.7894737,17.6842105 C28.3998937,17.6842105 28.8947368,18.1790537 28.8947368,18.7894737 C28.8947368,19.3998937 28.3998937,19.8947368 27.7894737,19.8947368 C27.1790537,19.8947368 26.6842105,19.3998937 26.6842105,18.7894737 C26.6842105,18.1790537 27.1790537,17.6842105 27.7894737,17.6842105 L27.7894737,17.6842105 Z M25.7557895,19.7178947 C26.3611486,19.7283644 26.8454117,20.2239242 26.8419404,20.8293638 C26.8384316,21.4348034 26.3484876,21.9247474 25.743048,21.9282562 C25.1376084,21.9317275 24.6420486,21.4474644 24.6315789,20.8421053 C24.6315354,20.5456587 24.7505797,20.2616207 24.961973,20.0537903 C25.1733662,19.8459598 25.4593864,19.7317602 25.7557895,19.7368421 L25.7557895,19.7178947 Z M4.42105263,19.5410526 L6.31578947,19.5410526 L6.31578947,17.6463158 L8.84210526,17.6463158 L8.84210526,19.5410526 L10.7368421,19.5410526 L10.7368421,22.0673684 L8.84210526,22.0673684 L8.84210526,23.9621053 L6.31578947,23.9621053 L6.31578947,22.0673684 L4.42105263,22.0673684 L4.42105263,19.5410526 Z" id="Shape"></path>
                    <path d="M15.2589474,3.15789474 L21.4736842,3.15789474 C22.1713071,3.15789474 22.7368421,2.59235968 22.7368421,1.89473684 C22.7368421,1.197114 22.1713071,0.631578947 21.4736842,0.631578947 L15.3094737,0.631578947 C13.3697493,0.598471741 11.7020562,1.99944166 11.4,3.91578947 C11.2541958,4.99955536 11.5836744,6.09347417 12.3037688,6.91643919 C13.0238631,7.7394042 14.0643652,8.21117745 15.1578947,8.21052632 C15.8680249,8.22777251 16.4316572,8.81395018 16.4210526,9.52421053 L16.4210526,12.2463158 C16.4159645,12.5142414 16.518849,12.7729548 16.7065449,12.9642145 C16.8942408,13.1554742 17.1509734,13.2631579 17.4189474,13.2631579 L17.9494737,13.2631579 C18.4981387,13.2631579 18.9438959,12.8202329 18.9473684,12.2715789 L18.9473684,9.47368421 C18.9473684,7.38081568 17.2507633,5.68421053 15.1578947,5.68421053 C14.7873147,5.68840714 14.4335875,5.52965061 14.1904052,5.24999094 C13.9472228,4.97033128 13.8391225,4.59798611 13.8947368,4.23157895 C14.0220087,3.58594849 14.6014888,3.12987615 15.2589474,3.15789474 Z" id="Path"></path>
                </g>
            </g>
        </g>
    </g>
</svg>